<!--?xml version="1.0" standalone="no"?-->
              <svg id="sw-js-blob-svg" viewBox="0 0 100 100" xmlns="http://www.w3.org/2000/svg" version="1.1">
                    <defs> 
                        <linearGradient id="sw-gradient" x1="0" x2="1" y1="1" y2="0">
                            <stop id="stop1" stop-color="rgba(240, 96, 96, 1)" offset="0%"></stop>
                            <stop id="stop2" stop-color="rgba(140, 190, 178, 1)" offset="100%"></stop>
                        </linearGradient>
                    </defs>
                <path fill="url(#sw-gradient)" d="M23.5,-27.6C29.1,-23.3,31.4,-14.6,31.9,-6.4C32.5,1.8,31.3,9.6,28.4,17.9C25.4,26.3,20.7,35.1,13.5,38.2C6.4,41.2,-3.3,38.4,-11.7,34.4C-20.1,30.4,-27.2,25.1,-32.8,17.7C-38.5,10.4,-42.8,1.1,-41.9,-8.1C-41.1,-17.2,-35.2,-26.1,-27.4,-30C-19.6,-33.9,-9.8,-32.8,-0.4,-32.3C8.9,-31.8,17.9,-31.9,23.5,-27.6Z" width="100%" height="100%" transform="translate(50 50)" stroke-width="0" style="transition: 0.3s;"></path>
              </svg>