<!--?xml version="1.0" standalone="no"?-->
              <svg id="sw-js-blob-svg" viewBox="0 0 100 100" xmlns="http://www.w3.org/2000/svg" version="1.1">
                    <defs> 
                        <linearGradient id="sw-gradient" x1="0" x2="1" y1="1" y2="0">
                            <stop id="stop1" stop-color="rgba(240, 96, 96, 1)" offset="0%"></stop>
                            <stop id="stop2" stop-color="rgba(243, 181, 98, 1)" offset="100%"></stop>
                        </linearGradient>
                    </defs>
                <path fill="url(#sw-gradient)" d="M25.5,-31.5C30.6,-26.2,30.5,-15.8,30,-7C29.5,1.8,28.7,8.9,25.5,14.9C22.3,20.9,16.7,25.8,10.2,28.2C3.7,30.7,-3.8,30.7,-10.5,28.5C-17.3,26.2,-23.5,21.7,-28.6,15.3C-33.8,8.9,-37.9,0.8,-37.1,-7C-36.2,-14.7,-30.4,-22,-23.4,-27C-16.4,-32,-8.2,-34.6,1,-35.9C10.2,-37.1,20.4,-36.8,25.5,-31.5Z" width="100%" height="100%" transform="translate(50 50)" stroke-width="0" style="transition: 0.3s;" stroke="url(#sw-gradient)"></path>
              </svg>